<?xml version="1.0" encoding="UTF-8"?>
<!DOCTYPE svg PUBLIC "-//W3C//DTD SVG 1.1//EN" "http://www.w3.org/Graphics/SVG/1.1/DTD/svg11.dtd">
<!-- Creator: CorelDRAW 2019 (64-Bit) -->
<svg xmlns="http://www.w3.org/2000/svg" xml:space="preserve" width="40mm" height="10mm" version="1.1" style="shape-rendering:geometricPrecision; text-rendering:geometricPrecision; image-rendering:optimizeQuality; fill-rule:evenodd; clip-rule:evenodd"
viewBox="0 0 4000 1000"
 xmlns:xlink="http://www.w3.org/1999/xlink"
 xmlns:xodm="http://www.corel.com/coreldraw/odm/2003"
 zoomAndPan="magnify">
 <defs>
  <style type="text/css">
   <![CDATA[
    .fil0 {fill:none}
    .fil6 {fill:none;fill-rule:nonzero}
    .fil1 {fill:#FEFEFE}
    .fil8 {fill:#45AAF2}
    .fil7 {fill:#F7B731}
    .fil5 {fill:#3A84EF;fill-rule:nonzero}
    .fil3 {fill:#45AAF2;fill-rule:nonzero}
    .fil4 {fill:#E09717;fill-rule:nonzero}
    .fil2 {fill:#F7B731;fill-rule:nonzero}
   ]]>
  </style>
    <clipPath id="id0">
     <path d="M408.99 75.78l544 0 0 552.16 -544 0 0 -552.16zm0 0z"/>
    </clipPath>
    <clipPath id="id1" style="clip-rule:nonzero">
     <path d="M223.73 371.43l520.79 0 0 568.79 -520.79 0 0 -568.79zm0 0z"/>
    </clipPath>
 </defs>
 <g id="Layer_x0020_1">
  <metadata id="CorelCorpID_0Corel-Layer"/>
  <rect class="fil0" x="-6.6" y="8" width="4000" height="1000"/>
  <g id="_2087558392944">
   <rect class="fil1" x="409.13" y="186.48" width="392.24" height="681.32"/>
   <rect class="fil1" x="348.24" y="618.63" width="453.13" height="249.17"/>
   <rect class="fil1" x="461.49" y="152.29" width="453.13" height="249.17"/>
  </g>
  <g id="skill.svg">
   <g>
   </g>
   <g style="clip-path:url(#id0)">
    <g id="_2087558391216">
     <path class="fil2" d="M952.5 218.59l0 408.97 -150.2 0c0,-29.71 -4.92,-54.51 -14.55,-74.79 -9.63,-20.28 -22.54,-36.88 -38.32,-50.19 -15.98,-13.12 -33.4,-24.18 -52.25,-32.79 -17.83,-8.2 -35.65,-15.37 -53.68,-21.51 -1.03,-0.41 -2.26,-0.82 -3.28,-1.23 -19.06,-6.56 -36.68,-12.91 -52.67,-19.47 -15.98,-6.56 -28.69,-14.14 -38.32,-22.95 -9.63,-8.81 -14.55,-20.69 -14.55,-35.24 0,-15.57 6.56,-27.66 19.47,-36.06 12.91,-8.4 30.53,-12.5 52.67,-12.5 22.13,0 41.8,4.31 59.42,12.91 17.62,8.61 34.83,21.92 52.25,39.54l82.58 -81.75c-21.52,-24.17 -48.98,-43.43 -82.17,-57.37 -33.19,-13.93 -69.67,-21.1 -109.63,-21.1 -39.34,0 -74.18,6.55 -104.3,19.87 -30.12,13.12 -53.68,32.58 -70.69,57.78 -11.88,17.83 -19.67,37.91 -23.15,60.45 -0.41,3.07 -0.82,6.35 -1.23,9.63 -0.41,3.48 -0.62,6.96 -0.82,10.65l0 -295.66 401 0c78.49,0 142.42,63.93 142.42,142.81zm0 0z"/>
    </g>
   </g>
   <path class="fil0" d="M408.99 75.78l544 0 0 552.16 -544 0 0 -552.16zm0 0z"/>
   <path class="fil3" d="M802.3 627.56l0 312.46 -435.43 0c-78.9,0 -142.83,-63.93 -142.83,-142.81l0 -425.15 184.63 0c-0.21,3.27 -0.21,6.55 -0.21,9.83 0,29.09 4.92,53.27 14.55,72.33 9.63,19.05 22.54,35.04 38.32,47.74 15.98,12.7 33.19,23.15 52.25,31.55 18.85,8.4 37.91,15.78 56.96,22.33 19.06,6.56 36.69,13.12 52.67,20.29 15.98,6.96 28.69,15.36 38.32,24.99 9.63,9.63 14.55,22.34 14.55,37.91 0,17.21 -7.38,30.74 -22.34,40.37 -14.75,9.63 -35.65,14.54 -62.7,14.54 -29.72,0 -55.74,-5.73 -78.08,-17.41 -22.33,-11.68 -42.82,-27.87 -61.06,-48.97l-82.37 81.75c28.07,31.35 58.81,54.5 92.62,69.87 33.6,15.36 73.97,22.94 120.89,22.94 68.45,0 122.13,-15.57 160.86,-46.51 38.93,-30.93 58.4,-73.55 58.4,-128.05zm0 0z"/>
   <path class="fil3" d="M410.72 351.77c-0.41,3.08 -0.82,6.35 -1.23,9.63 -0.41,-0.82 -0.62,-1.43 -0.82,-2.05 -0.62,-1.84 -0.62,-3.48 0,-4.71 0.41,-1.23 1.02,-2.25 2.05,-2.87zm0 0z"/>
   <path class="fil4" d="M718.08 373.69l-74.79 74.79c-1.02,-0.41 -2.25,-0.82 -3.28,-1.23 -19.06,-6.56 -36.68,-12.91 -52.66,-19.47 -15.99,-6.55 -28.69,-14.13 -38.32,-22.94 -9.63,-8.81 -14.55,-20.7 -14.55,-35.24 0,-15.57 6.56,-27.66 19.47,-36.06 12.91,-8.4 30.53,-12.5 52.66,-12.5 22.13,0 41.8,4.3 59.43,12.91 17.41,8.81 34.83,21.92 52.04,39.74zm0 0z"/>
   <g>
   </g>
   <g style="clip-path:url(#id1)">
    <g>
     <path class="fil5" d="M744.1 755.82l-184.42 184.4 -192.81 0c-78.9,-0.2 -142.83,-64.13 -142.83,-143.01l0 -240.75 184.63 -184.61c-0.21,3.28 -0.21,6.56 -0.21,9.83 0,29.1 4.92,53.28 14.55,72.33 9.63,19.06 22.54,35.04 38.32,47.74 15.98,12.71 33.19,23.16 52.25,31.56 18.85,8.4 37.91,15.77 56.96,22.33 19.06,6.56 36.69,13.11 52.67,20.28 15.98,6.97 28.69,15.37 38.32,25 9.63,9.63 14.55,22.33 14.55,37.9 0,17.22 -7.38,30.74 -22.34,40.37 -14.75,9.63 -35.65,14.55 -62.7,14.55 -29.72,0 -55.74,-5.74 -78.08,-17.42 -22.33,-11.68 -42.82,-27.86 -61.06,-48.97l-82.37 81.96c28.07,31.35 58.81,54.5 92.62,69.87 33.6,15.36 73.97,22.94 120.89,22.94 68.45,0 122.13,-15.36 161.06,-46.3zm0 0z"/>
    </g>
   </g>
   <path class="fil6" d="M223.73 371.43l520.79 0 0 568.79 -520.79 0 0 -568.79zm0 0z"/>
   <g>
    <g id="_2087558383472">
     <g>
      <path class="fil7" d="M1343.91 461.97c-12.79,-7.53 -26.42,-13.69 -40.91,-18.48 -14.49,-4.8 -26.64,-7.21 -36.46,-7.21 -7.75,0 -13.85,1.43 -18.3,4.29 -4.45,2.85 -6.68,7.02 -6.68,12.49 0,5.26 1.93,9.65 5.81,13.18 3.89,3.54 8.67,6.39 14.37,8.56 5.71,2.16 14.16,4.96 25.35,8.38 16.64,4.8 30.39,9.59 41.23,14.38 10.85,4.79 20.15,12.15 27.89,22.08 7.76,9.92 11.64,22.87 11.64,38.84 0,15.99 -4.22,29.62 -12.67,40.91 -8.44,11.3 -20.01,19.8 -34.74,25.51 -14.71,5.69 -31.08,8.54 -49.1,8.54 -19.86,0 -39.65,-3.47 -59.39,-10.42 -19.73,-6.97 -36.78,-16.5 -51.16,-28.61l24.3 -48.94c12.08,10.73 26.4,19.52 42.95,26.37 16.54,6.85 31.2,10.27 43.99,10.27 9.35,0 16.7,-1.71 22.06,-5.14 5.37,-3.43 8.06,-8.45 8.06,-15.06 0,-5.48 -2,-10.04 -6,-13.69 -3.99,-3.65 -9.01,-6.56 -15.06,-8.72 -6.04,-2.17 -14.54,-4.74 -25.5,-7.71 -16.43,-4.56 -30,-9.18 -40.73,-13.85 -10.73,-4.68 -19.91,-11.76 -27.55,-21.23 -7.64,-9.48 -11.46,-22.09 -11.46,-37.84 0,-14.82 3.94,-27.83 11.81,-39 7.86,-11.19 19.04,-19.81 33.54,-25.85 14.49,-6.05 31.32,-9.07 50.48,-9.07 17.34,0 34.45,2.46 51.34,7.37 16.89,4.9 31.73,11.45 44.51,19.67l-23.62 49.98zm0 0z"/>
     </g>
    </g>
   </g>
   <g>
    <g id="_2087558381488">
     <g>
      <path class="fil7" d="M1552.97 488.65l94.45 141.03 -74.96 0 -62.98 -93.1 -30.12 33.54 0 59.56 -62.62 0 0 -239.93 62.62 0 0 104.04 90.02 -104.04 72.57 0 -88.98 98.9zm0 0z"/>
     </g>
    </g>
   </g>
   <g>
    <g id="_2087558378640">
     <g>
      <path class="fil7" d="M1690.12 629.68l0 -239.93 62.63 0 0 239.93 -62.63 0zm0 0z"/>
     </g>
    </g>
   </g>
   <g>
    <g id="_2087558377456">
     <g>
      <path class="fil7" d="M1816.39 629.68l0 -239.93 62.63 0 0 186.53 101.65 0 0 53.4 -164.28 0zm0 0z"/>
     </g>
    </g>
   </g>
   <g>
    <g id="_2087558376432">
     <g>
      <path class="fil7" d="M2026.14 629.68l0 -239.93 62.62 0 0 186.53 101.66 0 0 53.4 -164.28 0zm0 0z"/>
     </g>
    </g>
   </g>
   <g>
    <g id="_2087558372880">
     <g>
      <path class="fil8" d="M2305.05 629.68l-93.1 -239.93 67.43 0 59.9 173.53 60.24 -173.53 64.35 0 -93.78 239.93 -65.04 0zm0 0z"/>
     </g>
    </g>
   </g>
   <g>
    <g id="_2087558365648">
     <g>
      <path class="fil8" d="M2617.8 385.98c24.42,0 46.5,5.37 66.23,16.09 19.75,10.72 35.27,25.44 46.56,44.15 11.3,18.71 16.94,39.7 16.94,62.98 0,23.51 -5.64,44.73 -16.94,63.68 -11.29,18.93 -26.81,33.88 -46.56,44.83 -19.73,10.95 -41.81,16.42 -66.23,16.42 -24.41,0 -46.49,-5.41 -66.23,-16.25 -19.73,-10.85 -35.24,-25.8 -46.54,-44.84 -11.29,-19.05 -16.94,-40.33 -16.94,-63.84 0,-23.28 5.65,-44.27 16.94,-62.98 11.3,-18.71 26.81,-33.43 46.54,-44.15 19.74,-10.72 41.82,-16.09 66.23,-16.09zm0.69 53.06c-11.86,0 -22.87,3.08 -33.04,9.25 -10.15,6.15 -18.19,14.65 -24.12,25.48 -5.93,10.84 -8.89,22.76 -8.89,35.77 0,13.24 3.02,25.28 9.07,36.11 6.04,10.84 14.09,19.39 24.13,25.67 10.04,6.27 20.99,9.41 32.85,9.41 11.87,0 22.77,-3.14 32.69,-9.41 9.93,-6.28 17.74,-14.83 23.44,-25.67 5.71,-10.83 8.56,-22.87 8.56,-36.11 0,-13.01 -2.85,-24.93 -8.56,-35.77 -5.7,-10.83 -13.51,-19.33 -23.44,-25.48 -9.92,-6.17 -20.82,-9.25 -32.69,-9.25zm0 0z"/>
     </g>
    </g>
   </g>
   <g>
    <g id="_2087558366224">
     <g>
      <path class="fil8" d="M3010.65 629.68l-70.86 0 -34.9 -66.4 -46.56 0 0 66.4 -62.63 0 0 -239.93 107.81 0c31.71,0 56.3,7.36 73.76,22.08 17.46,14.71 26.2,35.41 26.2,62.1 0,18.03 -3.66,33.62 -10.97,46.74 -7.31,13.12 -17.91,23.33 -31.82,30.63l49.97 78.38zm-152.32 -189.96l0 73.58 45.53 0c12.77,0 22.64,-3.18 29.59,-9.57 6.96,-6.4 10.45,-15.64 10.45,-27.73 0,-11.63 -3.49,-20.59 -10.45,-26.86 -6.95,-6.28 -16.82,-9.42 -29.59,-9.42l-45.53 0zm0 0z"/>
     </g>
    </g>
   </g>
   <g>
    <g id="_2087558356176">
     <g>
      <path class="fil8" d="M3039.65 441.42l0 -51.67 205.72 0 0 51.67 -71.88 0 0 188.26 -62.65 0 0 -188.26 -71.19 0zm0 0z"/>
     </g>
    </g>
   </g>
   <g>
    <g id="_2087558351344">
     <g>
      <path class="fil8" d="M3287.74 629.68l0 -239.93 189.26 0 0 49.97 -126.64 0 0 44.84 114.33 0 0 49.61 -114.33 0.35 0 45.18 130.08 0 0 49.98 -192.7 0zm0 0z"/>
     </g>
    </g>
   </g>
   <g>
    <g id="_2087558350288">
     <g>
      <path class="fil8" d="M3599.12 507.47l-79.75 -117.72 72.91 0 44.84 68.11 45.18 -68.11 73.92 0 -79.06 114.65 85.9 125.28 -74.95 0 -50.99 -74.27 -49.98 74.27 -73.24 0 85.22 -122.21zm0 0z"/>
     </g>
    </g>
   </g>
  </g>
 </g>
</svg>
